<?xml version="1.0" encoding="UTF-8" standalone="no"?>
<!DOCTYPE svg PUBLIC "-//W3C//DTD SVG 1.1//EN"
 "http://www.w3.org/Graphics/SVG/1.1/DTD/svg11.dtd">
<!-- Generated by graphviz version 12.2.1 (20241206.2353)
 -->
<!-- Pages: 1 -->
<svg width="498pt" height="476pt"
 viewBox="0.00 0.00 497.90 476.00" xmlns="http://www.w3.org/2000/svg" xmlns:xlink="http://www.w3.org/1999/xlink">
<g id="graph0" class="graph" transform="scale(1 1) rotate(0) translate(4 472)">
<polygon fill="white" stroke="none" points="-4,4 -4,-472 493.9,-472 493.9,4 -4,4"/>
<!-- Материал 1 -->
<g id="node1" class="node">
<title>Материал 1</title>
<path fill="#e8f6f3" stroke="#404040" d="M94.8,-152C94.8,-152 12,-152 12,-152 6,-152 0,-146 0,-140 0,-140 0,-128 0,-128 0,-122 6,-116 12,-116 12,-116 94.8,-116 94.8,-116 100.8,-116 106.8,-122 106.8,-128 106.8,-128 106.8,-140 106.8,-140 106.8,-146 100.8,-152 94.8,-152"/>
<text text-anchor="start" x="14.4" y="-129.57" font-family="Arial" font-weight="bold" font-size="14.00">Материал 1</text>
</g>
<!-- Деталь 1 -->
<g id="node2" class="node">
<title>Деталь 1</title>
<path fill="#d5f5e3" stroke="#404040" d="M286.35,-125.2C286.35,-125.2 206.55,-125.2 206.55,-125.2 200.55,-125.2 194.55,-119.2 194.55,-113.2 194.55,-113.2 194.55,-96.8 194.55,-96.8 194.55,-90.8 200.55,-84.8 206.55,-84.8 206.55,-84.8 286.35,-84.8 286.35,-84.8 292.35,-84.8 298.35,-90.8 298.35,-96.8 298.35,-96.8 298.35,-113.2 298.35,-113.2 298.35,-119.2 292.35,-125.2 286.35,-125.2"/>
<text text-anchor="start" x="216.07" y="-105.7" font-family="Arial" font-weight="bold" font-size="14.00">Деталь 1</text>
<text text-anchor="start" x="208.95" y="-93.6" font-family="Arial" font-size="12.00">получим 1 шт</text>
</g>
<!-- Материал 1&#45;&gt;Деталь 1 -->
<g id="edge1" class="edge">
<title>Материал 1&#45;&gt;Деталь 1</title>
<path fill="none" stroke="#404040" d="M107.11,-126C131.2,-122.34 159.88,-117.99 184.86,-114.2"/>
<polygon fill="#404040" stroke="#404040" points="185.24,-116.97 192.73,-113 184.4,-111.43 185.24,-116.97"/>
<text text-anchor="start" x="133.42" y="-134.55" font-family="Arial" font-weight="bold" font-size="12.00">Гибка</text>
<text text-anchor="start" x="124.8" y="-124.45" font-family="Arial" font-size="10.00">берем 1 шт</text>
</g>
<!-- Изделие 1 -->
<g id="node12" class="node">
<title>Изделие 1</title>
<path fill="#f4ecf7" stroke="#404040" d="M477.9,-265.2C477.9,-265.2 398.1,-265.2 398.1,-265.2 392.1,-265.2 386.1,-259.2 386.1,-253.2 386.1,-253.2 386.1,-236.8 386.1,-236.8 386.1,-230.8 392.1,-224.8 398.1,-224.8 398.1,-224.8 477.9,-224.8 477.9,-224.8 483.9,-224.8 489.9,-230.8 489.9,-236.8 489.9,-236.8 489.9,-253.2 489.9,-253.2 489.9,-259.2 483.9,-265.2 477.9,-265.2"/>
<text text-anchor="start" x="403.5" y="-245.7" font-family="Arial" font-weight="bold" font-size="14.00">Изделие 1</text>
<text text-anchor="start" x="400.5" y="-233.6" font-family="Arial" font-size="12.00">получим 1 шт</text>
</g>
<!-- Деталь 1&#45;&gt;Изделие 1 -->
<g id="edge10" class="edge">
<title>Деталь 1&#45;&gt;Изделие 1</title>
<path fill="none" stroke="#404040" d="M275.42,-125.66C308.97,-150.44 365.26,-192.01 401.75,-218.97"/>
<polygon fill="#404040" stroke="#404040" points="399.91,-221.09 408.01,-223.59 403.24,-216.58 399.91,-221.09"/>
<text text-anchor="start" x="320.47" y="-203.26" font-family="Arial" font-weight="bold" font-size="12.00">Сборка</text>
<text text-anchor="start" x="316.35" y="-193.16" font-family="Arial" font-size="10.00">берем 1 шт</text>
</g>
<!-- Материал 2 -->
<g id="node3" class="node">
<title>Материал 2</title>
<path fill="#fae5d3" stroke="#404040" d="M94.8,-94C94.8,-94 12,-94 12,-94 6,-94 0,-88 0,-82 0,-82 0,-70 0,-70 0,-64 6,-58 12,-58 12,-58 94.8,-58 94.8,-58 100.8,-58 106.8,-64 106.8,-70 106.8,-70 106.8,-82 106.8,-82 106.8,-88 100.8,-94 94.8,-94"/>
<text text-anchor="start" x="14.4" y="-71.58" font-family="Arial" font-weight="bold" font-size="14.00">Материал 2</text>
</g>
<!-- Материал 2&#45;&gt;Деталь 1 -->
<g id="edge2" class="edge">
<title>Материал 2&#45;&gt;Деталь 1</title>
<path fill="none" stroke="#404040" d="M107.2,-80.2C128.78,-82.28 153.94,-85.19 176.55,-89 179.37,-89.47 182.24,-90 185.13,-90.55"/>
<polygon fill="#404040" stroke="#404040" points="184.54,-93.29 192.94,-92.12 185.65,-87.8 184.54,-93.29"/>
<text text-anchor="start" x="128.92" y="-100.6" font-family="Arial" font-weight="bold" font-size="12.00">Сборка</text>
<text text-anchor="start" x="124.8" y="-90.5" font-family="Arial" font-size="10.00">берем 2 шт</text>
</g>
<!-- Материал 3 -->
<g id="node4" class="node">
<title>Материал 3</title>
<path fill="#fdedec" stroke="#404040" d="M94.8,-36C94.8,-36 12,-36 12,-36 6,-36 0,-30 0,-24 0,-24 0,-12 0,-12 0,-6 6,0 12,0 12,0 94.8,0 94.8,0 100.8,0 106.8,-6 106.8,-12 106.8,-12 106.8,-24 106.8,-24 106.8,-30 100.8,-36 94.8,-36"/>
<text text-anchor="start" x="14.4" y="-13.57" font-family="Arial" font-weight="bold" font-size="14.00">Материал 3</text>
</g>
<!-- Материал 3&#45;&gt;Деталь 1 -->
<g id="edge3" class="edge">
<title>Материал 3&#45;&gt;Деталь 1</title>
<path fill="none" stroke="#404040" d="M107.27,-29.88C129.33,-35.88 154.82,-44.21 176.55,-55 189.46,-61.41 202.53,-70.19 213.76,-78.6"/>
<polygon fill="#404040" stroke="#404040" points="211.97,-80.76 220.02,-83.42 215.39,-76.32 211.97,-80.76"/>
<text text-anchor="start" x="134.17" y="-66.6" font-family="Arial" font-weight="bold" font-size="12.00">Резка</text>
<text text-anchor="start" x="124.8" y="-56.5" font-family="Arial" font-size="10.00">берем 3 шт</text>
</g>
<!-- Материал 4 -->
<g id="node5" class="node">
<title>Материал 4</title>
<path fill="#ebf5fb" stroke="#404040" d="M94.8,-468C94.8,-468 12,-468 12,-468 6,-468 0,-462 0,-456 0,-456 0,-444 0,-444 0,-438 6,-432 12,-432 12,-432 94.8,-432 94.8,-432 100.8,-432 106.8,-438 106.8,-444 106.8,-444 106.8,-456 106.8,-456 106.8,-462 100.8,-468 94.8,-468"/>
<text text-anchor="start" x="14.4" y="-445.57" font-family="Arial" font-weight="bold" font-size="14.00">Материал 4</text>
</g>
<!-- Деталь 2 -->
<g id="node6" class="node">
<title>Деталь 2</title>
<path fill="#f4ecf7" stroke="#404040" d="M286.35,-392.2C286.35,-392.2 206.55,-392.2 206.55,-392.2 200.55,-392.2 194.55,-386.2 194.55,-380.2 194.55,-380.2 194.55,-353.8 194.55,-353.8 194.55,-347.8 200.55,-341.8 206.55,-341.8 206.55,-341.8 286.35,-341.8 286.35,-341.8 292.35,-341.8 298.35,-347.8 298.35,-353.8 298.35,-353.8 298.35,-380.2 298.35,-380.2 298.35,-386.2 292.35,-392.2 286.35,-392.2"/>
<text text-anchor="start" x="216.07" y="-372.7" font-family="Arial" font-weight="bold" font-size="14.00">Деталь 2</text>
<text text-anchor="start" x="208.95" y="-360.6" font-family="Arial" font-size="12.00">получим 3 шт</text>
<text text-anchor="start" x="214.2" y="-350.5" font-family="Arial" font-size="10.00" fill="#cc0000">на склад 2 шт</text>
</g>
<!-- Материал 4&#45;&gt;Деталь 2 -->
<g id="edge4" class="edge">
<title>Материал 4&#45;&gt;Деталь 2</title>
<path fill="none" stroke="#404040" d="M107.11,-435.15C129.02,-428.25 154.44,-419.29 176.55,-409 184.01,-405.53 191.68,-401.44 199.06,-397.19"/>
<polygon fill="#404040" stroke="#404040" points="200.16,-399.79 205.63,-393.32 197.32,-394.97 200.16,-399.79"/>
<text text-anchor="start" x="133.42" y="-440.11" font-family="Arial" font-weight="bold" font-size="12.00">Гибка</text>
<text text-anchor="start" x="124.8" y="-430.01" font-family="Arial" font-size="10.00">берем 4 шт</text>
</g>
<!-- Деталь 2&#45;&gt;Изделие 1 -->
<g id="edge11" class="edge">
<title>Деталь 2&#45;&gt;Изделие 1</title>
<path fill="none" stroke="#404040" d="M287.19,-341.42C319.41,-320.68 364.63,-291.58 396.94,-270.78"/>
<polygon fill="#404040" stroke="#404040" points="398.38,-273.19 403.59,-266.51 395.35,-268.48 398.38,-273.19"/>
<text text-anchor="start" x="320.47" y="-332.12" font-family="Arial" font-weight="bold" font-size="12.00">Сборка</text>
<text text-anchor="start" x="316.35" y="-322.02" font-family="Arial" font-size="10.00">берем 1 шт</text>
</g>
<!-- Материал 5 -->
<g id="node7" class="node">
<title>Материал 5</title>
<path fill="#e8f6f3" stroke="#404040" d="M94.8,-410C94.8,-410 12,-410 12,-410 6,-410 0,-404 0,-398 0,-398 0,-386 0,-386 0,-380 6,-374 12,-374 12,-374 94.8,-374 94.8,-374 100.8,-374 106.8,-380 106.8,-386 106.8,-386 106.8,-398 106.8,-398 106.8,-404 100.8,-410 94.8,-410"/>
<text text-anchor="start" x="14.4" y="-387.57" font-family="Arial" font-weight="bold" font-size="14.00">Материал 5</text>
</g>
<!-- Материал 5&#45;&gt;Деталь 2 -->
<g id="edge5" class="edge">
<title>Материал 5&#45;&gt;Деталь 2</title>
<path fill="none" stroke="#404040" d="M107.11,-385.1C131.2,-381.95 159.88,-378.2 184.86,-374.93"/>
<polygon fill="#404040" stroke="#404040" points="185.16,-377.71 192.73,-373.9 184.43,-372.16 185.16,-377.71"/>
<text text-anchor="start" x="128.92" y="-394.07" font-family="Arial" font-weight="bold" font-size="12.00">Сборка</text>
<text text-anchor="start" x="124.8" y="-383.97" font-family="Arial" font-size="10.00">берем 5 шт</text>
</g>
<!-- Материал 6 -->
<g id="node8" class="node">
<title>Материал 6</title>
<path fill="#d5f5e3" stroke="#404040" d="M94.8,-341C94.8,-341 12,-341 12,-341 6,-341 0,-335 0,-329 0,-329 0,-317 0,-317 0,-311 6,-305 12,-305 12,-305 94.8,-305 94.8,-305 100.8,-305 106.8,-311 106.8,-317 106.8,-317 106.8,-329 106.8,-329 106.8,-335 100.8,-341 94.8,-341"/>
<text text-anchor="start" x="14.4" y="-318.57" font-family="Arial" font-weight="bold" font-size="14.00">Материал 6</text>
</g>
<!-- Материал 6&#45;&gt;Деталь 2 -->
<g id="edge6" class="edge">
<title>Материал 6&#45;&gt;Деталь 2</title>
<path fill="none" stroke="#404040" d="M107.07,-334.35C128.64,-339.07 153.82,-344.68 176.55,-350 179.34,-350.65 182.19,-351.33 185.07,-352.01"/>
<polygon fill="#404040" stroke="#404040" points="184.41,-354.73 192.84,-353.88 185.72,-349.29 184.41,-354.73"/>
<text text-anchor="start" x="128.92" y="-361.6" font-family="Arial" font-weight="bold" font-size="12.00">Сборка</text>
<text text-anchor="start" x="124.8" y="-351.5" font-family="Arial" font-size="10.00">берем 6 шт</text>
</g>
<!-- Деталь 3 -->
<g id="node10" class="node">
<title>Деталь 3</title>
<path fill="#fdedec" stroke="#404040" d="M286.35,-265.2C286.35,-265.2 206.55,-265.2 206.55,-265.2 200.55,-265.2 194.55,-259.2 194.55,-253.2 194.55,-253.2 194.55,-236.8 194.55,-236.8 194.55,-230.8 200.55,-224.8 206.55,-224.8 206.55,-224.8 286.35,-224.8 286.35,-224.8 292.35,-224.8 298.35,-230.8 298.35,-236.8 298.35,-236.8 298.35,-253.2 298.35,-253.2 298.35,-259.2 292.35,-265.2 286.35,-265.2"/>
<text text-anchor="start" x="216.07" y="-245.7" font-family="Arial" font-weight="bold" font-size="14.00">Деталь 3</text>
<text text-anchor="start" x="208.95" y="-233.6" font-family="Arial" font-size="12.00">получим 1 шт</text>
</g>
<!-- Материал 6&#45;&gt;Деталь 3 -->
<g id="edge9" class="edge">
<title>Материал 6&#45;&gt;Деталь 3</title>
<path fill="none" stroke="#404040" d="M99.68,-304.52C125.58,-293.94 158.37,-280.55 186.28,-269.16"/>
<polygon fill="#404040" stroke="#404040" points="187.03,-271.88 193.38,-266.26 184.91,-266.69 187.03,-271.88"/>
<text text-anchor="start" x="128.92" y="-304.88" font-family="Arial" font-weight="bold" font-size="12.00">Сборка</text>
<text text-anchor="start" x="124.8" y="-294.78" font-family="Arial" font-size="10.00">берем 4 шт</text>
</g>
<!-- Материал 7 -->
<g id="node9" class="node">
<title>Материал 7</title>
<path fill="#fae5d3" stroke="#404040" d="M94.8,-268C94.8,-268 12,-268 12,-268 6,-268 0,-262 0,-256 0,-256 0,-244 0,-244 0,-238 6,-232 12,-232 12,-232 94.8,-232 94.8,-232 100.8,-232 106.8,-238 106.8,-244 106.8,-244 106.8,-256 106.8,-256 106.8,-262 100.8,-268 94.8,-268"/>
<text text-anchor="start" x="14.4" y="-245.57" font-family="Arial" font-weight="bold" font-size="14.00">Материал 7</text>
</g>
<!-- Материал 7&#45;&gt;Деталь 3 -->
<g id="edge7" class="edge">
<title>Материал 7&#45;&gt;Деталь 3</title>
<path fill="none" stroke="#404040" d="M107.04,-245.85C113.03,-245.5 119.04,-245.2 124.8,-245 144.23,-244.31 165.43,-244.12 184.56,-244.16"/>
<polygon fill="#404040" stroke="#404040" points="184.54,-246.96 192.55,-244.19 184.56,-241.36 184.54,-246.96"/>
<text text-anchor="start" x="133.42" y="-256.6" font-family="Arial" font-weight="bold" font-size="12.00">Гибка</text>
<text text-anchor="start" x="124.8" y="-246.5" font-family="Arial" font-size="10.00">берем 1 шт</text>
</g>
<!-- Деталь 3&#45;&gt;Изделие 1 -->
<g id="edge12" class="edge">
<title>Деталь 3&#45;&gt;Изделие 1</title>
<path fill="none" stroke="#404040" d="M298.74,-245C322.66,-245 351.29,-245 376.28,-245"/>
<polygon fill="#404040" stroke="#404040" points="376.15,-247.8 384.15,-245 376.15,-242.2 376.15,-247.8"/>
<text text-anchor="start" x="320.47" y="-256.6" font-family="Arial" font-weight="bold" font-size="12.00">Сборка</text>
<text text-anchor="start" x="316.35" y="-246.5" font-family="Arial" font-size="10.00">берем 1 шт</text>
</g>
<!-- Материал 8 -->
<g id="node11" class="node">
<title>Материал 8</title>
<path fill="#ebf5fb" stroke="#404040" d="M94.8,-210C94.8,-210 12,-210 12,-210 6,-210 0,-204 0,-198 0,-198 0,-186 0,-186 0,-180 6,-174 12,-174 12,-174 94.8,-174 94.8,-174 100.8,-174 106.8,-180 106.8,-186 106.8,-186 106.8,-198 106.8,-198 106.8,-204 100.8,-210 94.8,-210"/>
<text text-anchor="start" x="14.4" y="-187.57" font-family="Arial" font-weight="bold" font-size="14.00">Материал 8</text>
</g>
<!-- Материал 8&#45;&gt;Деталь 3 -->
<g id="edge8" class="edge">
<title>Материал 8&#45;&gt;Деталь 3</title>
<path fill="none" stroke="#404040" d="M107.24,-200.61C128.94,-204.72 154.17,-210.23 176.55,-217 180.73,-218.27 185.01,-219.69 189.29,-221.2"/>
<polygon fill="#404040" stroke="#404040" points="188.15,-223.76 196.62,-223.89 190.08,-218.5 188.15,-223.76"/>
<text text-anchor="start" x="133.42" y="-228.6" font-family="Arial" font-weight="bold" font-size="12.00">Гибка</text>
<text text-anchor="start" x="124.8" y="-218.5" font-family="Arial" font-size="10.00">берем 1 шт</text>
</g>
</g>
</svg>
